G75*
%MOIN*%
%OFA0B0*%
%FSLAX25Y25*%
%IPPOS*%
%LPD*%
%AMOC8*
5,1,8,0,0,1.08239X$1,22.5*
%
%ADD10C,0.07000*%
%ADD11C,0.08000*%
%ADD12C,0.07400*%
%ADD13C,0.06400*%
%ADD14R,0.09000X0.09000*%
%ADD15C,0.09000*%
%ADD16R,0.12211X0.05124*%
%ADD17R,0.05124X0.12211*%
%ADD18R,0.07498X0.06699*%
%ADD19C,0.06337*%
%ADD20C,0.05400*%
D10*
X0029600Y0227800D02*
X0038200Y0221700D01*
X0048200Y0221700D02*
X0048100Y0238800D01*
X0043100Y0243800D01*
X0043100Y0252800D01*
X0029600Y0264300D02*
X0029600Y0227800D01*
X0029600Y0264300D02*
X0043100Y0273800D01*
X0053600Y0273800D01*
X0058100Y0278300D01*
X0058100Y0286300D01*
X0058100Y0344600D01*
X0048100Y0344600D02*
X0048100Y0335300D01*
X0028600Y0321800D01*
X0028600Y0302800D01*
X0036600Y0294800D01*
X0043100Y0294800D01*
X0058100Y0286300D02*
X0157100Y0286300D01*
X0173400Y0302600D01*
X0173400Y0302800D02*
X0173400Y0307300D01*
X0173600Y0307000D02*
X0168100Y0312500D01*
X0168100Y0336800D01*
X0054600Y0314800D02*
X0043100Y0314800D01*
D11*
X0091257Y0298800D03*
X0110943Y0298800D03*
X0146257Y0217300D03*
X0165943Y0217300D03*
X0295757Y0216300D03*
X0315443Y0216300D03*
X0315443Y0059700D03*
X0295757Y0059700D03*
X0165943Y0060700D03*
X0146257Y0060700D03*
D12*
X0141883Y0077798D03*
X0131072Y0077798D03*
X0173380Y0077798D03*
X0184191Y0077798D03*
X0184191Y0150633D03*
X0173380Y0150633D03*
X0141883Y0150633D03*
X0131072Y0150633D03*
X0131072Y0234398D03*
X0141883Y0234398D03*
X0173380Y0234398D03*
X0184191Y0234398D03*
X0184191Y0307233D03*
X0173380Y0307233D03*
X0141883Y0307233D03*
X0131072Y0307233D03*
X0118100Y0319300D03*
X0118100Y0329300D03*
X0118100Y0339300D03*
X0118100Y0349300D03*
X0088100Y0349300D03*
X0088100Y0339300D03*
X0088100Y0329300D03*
X0088100Y0319300D03*
D13*
X0058100Y0341600D02*
X0058100Y0347600D01*
X0048100Y0347600D02*
X0048100Y0341600D01*
X0038100Y0341600D02*
X0038100Y0347600D01*
X0098600Y0273300D02*
X0104600Y0273300D01*
X0104600Y0263300D02*
X0098600Y0263300D01*
X0098600Y0253300D02*
X0104600Y0253300D01*
X0104600Y0243300D02*
X0098600Y0243300D01*
X0098600Y0233300D02*
X0104600Y0233300D01*
X0058200Y0224700D02*
X0058200Y0218700D01*
X0048200Y0218700D02*
X0048200Y0224700D01*
X0038200Y0224700D02*
X0038200Y0218700D01*
X0098600Y0116700D02*
X0104600Y0116700D01*
X0104600Y0106700D02*
X0098600Y0106700D01*
X0098600Y0096700D02*
X0104600Y0096700D01*
X0104600Y0086700D02*
X0098600Y0086700D01*
X0098600Y0076700D02*
X0104600Y0076700D01*
X0211100Y0076700D02*
X0217100Y0076700D01*
X0217100Y0086700D02*
X0211100Y0086700D01*
X0211100Y0096700D02*
X0217100Y0096700D01*
X0217100Y0106700D02*
X0211100Y0106700D01*
X0211100Y0116700D02*
X0217100Y0116700D01*
X0246100Y0116700D02*
X0252100Y0116700D01*
X0252100Y0106700D02*
X0246100Y0106700D01*
X0246100Y0096700D02*
X0252100Y0096700D01*
X0252100Y0086700D02*
X0246100Y0086700D01*
X0246100Y0076700D02*
X0252100Y0076700D01*
X0358600Y0076700D02*
X0364600Y0076700D01*
X0364600Y0086700D02*
X0358600Y0086700D01*
X0358600Y0096700D02*
X0364600Y0096700D01*
X0364600Y0106700D02*
X0358600Y0106700D01*
X0358600Y0116700D02*
X0364600Y0116700D01*
X0364600Y0160200D02*
X0358600Y0160200D01*
X0358600Y0170200D02*
X0364600Y0170200D01*
X0364600Y0180200D02*
X0358600Y0180200D01*
X0358600Y0190200D02*
X0364600Y0190200D01*
X0338600Y0187700D02*
X0338600Y0193700D01*
X0328600Y0193700D02*
X0328600Y0187700D01*
X0318600Y0187700D02*
X0318600Y0193700D01*
X0299600Y0193700D02*
X0299600Y0187700D01*
X0289600Y0187700D02*
X0289600Y0193700D01*
X0279600Y0193700D02*
X0279600Y0187700D01*
X0252100Y0190200D02*
X0246100Y0190200D01*
X0246100Y0180200D02*
X0252100Y0180200D01*
X0252100Y0170200D02*
X0246100Y0170200D01*
X0246100Y0233300D02*
X0252100Y0233300D01*
X0252100Y0243300D02*
X0246100Y0243300D01*
X0246100Y0253300D02*
X0252100Y0253300D01*
X0252100Y0263300D02*
X0246100Y0263300D01*
X0246100Y0273300D02*
X0252100Y0273300D01*
X0217100Y0273300D02*
X0211100Y0273300D01*
X0211100Y0263300D02*
X0217100Y0263300D01*
X0217100Y0253300D02*
X0211100Y0253300D01*
X0211100Y0243300D02*
X0217100Y0243300D01*
X0217100Y0233300D02*
X0211100Y0233300D01*
X0246100Y0326800D02*
X0252100Y0326800D01*
X0252100Y0336800D02*
X0246100Y0336800D01*
X0246100Y0346800D02*
X0252100Y0346800D01*
X0279600Y0344300D02*
X0279600Y0350300D01*
X0289600Y0350300D02*
X0289600Y0344300D01*
X0299600Y0344300D02*
X0299600Y0350300D01*
X0318600Y0350300D02*
X0318600Y0344300D01*
X0328600Y0344300D02*
X0328600Y0350300D01*
X0338600Y0350300D02*
X0338600Y0344300D01*
X0358600Y0346800D02*
X0364600Y0346800D01*
X0364600Y0336800D02*
X0358600Y0336800D01*
X0358600Y0326800D02*
X0364600Y0326800D01*
X0364600Y0316800D02*
X0358600Y0316800D01*
X0358600Y0273300D02*
X0364600Y0273300D01*
X0364600Y0263300D02*
X0358600Y0263300D01*
X0358600Y0253300D02*
X0364600Y0253300D01*
X0364600Y0243300D02*
X0358600Y0243300D01*
X0358600Y0233300D02*
X0364600Y0233300D01*
D14*
X0148100Y0184700D03*
X0041600Y0158700D03*
X0041600Y0077200D03*
X0043100Y0253800D03*
X0043100Y0294800D03*
X0148100Y0341300D03*
D15*
X0168100Y0337000D02*
X0168100Y0345600D01*
X0047400Y0314800D02*
X0038800Y0314800D01*
X0038800Y0273800D02*
X0047400Y0273800D01*
X0045900Y0178700D02*
X0037300Y0178700D01*
X0037300Y0097200D02*
X0045900Y0097200D01*
X0168100Y0180400D02*
X0168100Y0189000D01*
D16*
X0271423Y0140535D03*
X0271423Y0132661D03*
X0271423Y0124787D03*
X0271423Y0116913D03*
X0271423Y0109039D03*
X0271423Y0101165D03*
X0271423Y0093291D03*
X0271423Y0085417D03*
X0335990Y0085417D03*
X0335990Y0093291D03*
X0335990Y0101165D03*
X0335990Y0109039D03*
X0335990Y0116913D03*
X0335990Y0124787D03*
X0335990Y0132661D03*
X0335990Y0140535D03*
X0335990Y0242017D03*
X0335990Y0249891D03*
X0335990Y0257765D03*
X0335990Y0265639D03*
X0335990Y0273513D03*
X0335990Y0281387D03*
X0335990Y0289261D03*
X0335990Y0297135D03*
X0271423Y0297135D03*
X0271423Y0289261D03*
X0271423Y0281387D03*
X0271423Y0273513D03*
X0271423Y0265639D03*
X0271423Y0257765D03*
X0271423Y0249891D03*
X0271423Y0242017D03*
D17*
X0285202Y0233749D03*
X0293076Y0233749D03*
X0300950Y0233749D03*
X0308824Y0233749D03*
X0316698Y0233749D03*
X0324572Y0233749D03*
X0324572Y0077149D03*
X0316698Y0077149D03*
X0308824Y0077149D03*
X0300950Y0077149D03*
X0293076Y0077149D03*
X0285202Y0077149D03*
D18*
X0073600Y0311702D03*
X0073600Y0322898D03*
D19*
X0064100Y0057700D03*
X0064100Y0077700D03*
X0064100Y0107700D03*
X0064100Y0117700D03*
X0064100Y0138700D03*
X0064100Y0158700D03*
X0064100Y0188700D03*
X0064100Y0198700D03*
D20*
X0268100Y0152200D03*
X0281100Y0145700D03*
X0281100Y0124700D03*
X0282100Y0112200D03*
X0289600Y0101200D03*
X0289600Y0089700D03*
X0307100Y0089700D03*
X0307600Y0102200D03*
X0310600Y0139200D03*
X0321600Y0138700D03*
X0307100Y0246300D03*
X0307600Y0258800D03*
X0289600Y0257800D03*
X0289600Y0246300D03*
X0282100Y0268800D03*
X0281100Y0281300D03*
X0281100Y0302300D03*
X0268100Y0308800D03*
X0310600Y0295800D03*
X0321600Y0295300D03*
M02*
