%
M48
M72
T01C0.03150
T02C0.03150
T03C0.03937
T04C0.04000
T05C0.04724
%
T01
X146257Y60700
X165943Y60700
X295757Y59700
X315443Y59700
X315443Y216300
X295757Y216300
X165943Y217300
X146257Y217300
X110943Y298800
X91257Y298800
T02
X88100Y319300
X88100Y329300
X88100Y339300
X88100Y349300
X118100Y349300
X118100Y339300
X118100Y329300
X118100Y319300
X131072Y307233
X141883Y307233
X173380Y307233
X184191Y307233
X268100Y308800
X281100Y302300
X281100Y281300
X282100Y268800
X289600Y257800
X289600Y246300
X307100Y246300
X307600Y258800
X310600Y295800
X321600Y295300
X184191Y234398
X173380Y234398
X141883Y234398
X131072Y234398
X131072Y150633
X141883Y150633
X173380Y150633
X184191Y150633
X268100Y152200
X281100Y145700
X281100Y124700
X282100Y112200
X289600Y101200
X289600Y89700
X307100Y89700
X307600Y102200
X310600Y139200
X321600Y138700
X184191Y77798
X173380Y77798
X141883Y77798
X131072Y77798
T03
X64100Y57700
X64100Y77700
X64100Y107700
X64100Y117700
X64100Y138700
X64100Y158700
X64100Y188700
X64100Y198700
T04
X58200Y221700
X48200Y221700
X38200Y221700
X101600Y233300
X101600Y243300
X101600Y253300
X101600Y263300
X101600Y273300
X58100Y344600
X48100Y344600
X38100Y344600
X214100Y273300
X214100Y263300
X214100Y253300
X214100Y243300
X214100Y233300
X249100Y233300
X249100Y243300
X249100Y253300
X249100Y263300
X249100Y273300
X249100Y326800
X249100Y336800
X249100Y346800
X279600Y347300
X289600Y347300
X299600Y347300
X318600Y347300
X328600Y347300
X338600Y347300
X361600Y346800
X361600Y336800
X361600Y326800
X361600Y316800
X361600Y273300
X361600Y263300
X361600Y253300
X361600Y243300
X361600Y233300
X361600Y190200
X361600Y180200
X361600Y170200
X361600Y160200
X338600Y190700
X328600Y190700
X318600Y190700
X299600Y190700
X289600Y190700
X279600Y190700
X249100Y190200
X249100Y180200
X249100Y170200
X249100Y116700
X249100Y106700
X249100Y96700
X249100Y86700
X249100Y76700
X214100Y76700
X214100Y86700
X214100Y96700
X214100Y106700
X214100Y116700
X101600Y116700
X101600Y106700
X101600Y96700
X101600Y86700
X101600Y76700
X361600Y76700
X361600Y86700
X361600Y96700
X361600Y106700
X361600Y116700
T05
X168100Y184700
X148100Y184700
X41600Y178700
X41600Y158700
X41600Y97200
X41600Y77200
X43100Y253800
X43100Y273800
X43100Y294800
X43100Y314800
X148100Y341300
X168100Y341300
M30
