G75*
%MOIN*%
%OFA0B0*%
%FSLAX25Y25*%
%IPPOS*%
%LPD*%
%AMOC8*
5,1,8,0,0,1.08239X$1,22.5*
%
%ADD10C,0.00400*%
D10*
X0256523Y0079267D02*
X0257290Y0078500D01*
X0258825Y0078500D01*
X0259592Y0079267D01*
X0256523Y0082337D01*
X0256523Y0079267D01*
X0259592Y0079267D02*
X0259592Y0082337D01*
X0258825Y0083104D01*
X0257290Y0083104D01*
X0256523Y0082337D01*
X0261127Y0082337D02*
X0261894Y0083104D01*
X0263429Y0083104D01*
X0264196Y0082337D01*
X0265731Y0082337D02*
X0266498Y0083104D01*
X0268033Y0083104D01*
X0268800Y0082337D01*
X0265731Y0082337D02*
X0265731Y0081569D01*
X0268800Y0078500D01*
X0265731Y0078500D01*
X0264196Y0078500D02*
X0261127Y0081569D01*
X0261127Y0082337D01*
X0261127Y0078500D02*
X0264196Y0078500D01*
X0274123Y0079367D02*
X0274890Y0078600D01*
X0276425Y0078600D01*
X0277192Y0079367D01*
X0278727Y0078600D02*
X0281796Y0078600D01*
X0280261Y0078600D02*
X0280261Y0083204D01*
X0281796Y0081669D01*
X0283331Y0080902D02*
X0284098Y0080135D01*
X0286400Y0080135D01*
X0284865Y0080135D02*
X0283331Y0078600D01*
X0283331Y0080902D02*
X0283331Y0082437D01*
X0284098Y0083204D01*
X0286400Y0083204D01*
X0286400Y0078600D01*
X0277192Y0082437D02*
X0276425Y0083204D01*
X0274890Y0083204D01*
X0274123Y0082437D01*
X0274123Y0081669D01*
X0274890Y0080902D01*
X0274123Y0080135D01*
X0274123Y0079367D01*
X0274890Y0080902D02*
X0275658Y0080902D01*
X0275637Y0108400D02*
X0276404Y0109167D01*
X0276404Y0110702D01*
X0275637Y0111469D01*
X0274869Y0111469D01*
X0271800Y0108400D01*
X0271800Y0111469D01*
X0271800Y0113004D02*
X0274869Y0116073D01*
X0275637Y0116073D01*
X0276404Y0115306D01*
X0276404Y0113771D01*
X0275637Y0113004D01*
X0271800Y0113004D02*
X0271800Y0116073D01*
X0272567Y0117608D02*
X0275637Y0120677D01*
X0272567Y0120677D01*
X0271800Y0119910D01*
X0271800Y0118375D01*
X0272567Y0117608D01*
X0275637Y0117608D01*
X0276404Y0118375D01*
X0276404Y0119910D01*
X0275637Y0120677D01*
X0268404Y0119910D02*
X0268404Y0118375D01*
X0267637Y0117608D01*
X0268404Y0119910D02*
X0267637Y0120677D01*
X0266869Y0120677D01*
X0263800Y0117608D01*
X0263800Y0120677D01*
X0263800Y0116073D02*
X0263800Y0113004D01*
X0263800Y0114539D02*
X0268404Y0114539D01*
X0266869Y0113004D01*
X0266102Y0111469D02*
X0265335Y0110702D01*
X0265335Y0108400D01*
X0265335Y0109935D02*
X0263800Y0111469D01*
X0266102Y0111469D02*
X0267637Y0111469D01*
X0268404Y0110702D01*
X0268404Y0108400D01*
X0263800Y0108400D01*
X0297300Y0108192D02*
X0301904Y0108192D01*
X0301904Y0110494D01*
X0301137Y0111261D01*
X0299602Y0111261D01*
X0298835Y0110494D01*
X0298835Y0108192D01*
X0298835Y0109727D02*
X0297300Y0111261D01*
X0298067Y0112796D02*
X0298835Y0112796D01*
X0299602Y0113563D01*
X0299602Y0115098D01*
X0298835Y0115865D01*
X0298067Y0115865D01*
X0297300Y0115098D01*
X0297300Y0113563D01*
X0298067Y0112796D01*
X0299602Y0113563D02*
X0300369Y0112796D01*
X0301137Y0112796D01*
X0301904Y0113563D01*
X0301904Y0115098D01*
X0301137Y0115865D01*
X0300369Y0115865D01*
X0299602Y0115098D01*
X0300369Y0118356D02*
X0301904Y0119890D01*
X0297300Y0119890D01*
X0297300Y0118356D02*
X0297300Y0121425D01*
X0298067Y0122959D02*
X0301137Y0126029D01*
X0298067Y0126029D01*
X0297300Y0125261D01*
X0297300Y0123727D01*
X0298067Y0122959D01*
X0301137Y0122959D01*
X0301904Y0123727D01*
X0301904Y0125261D01*
X0301137Y0126029D01*
X0301904Y0127563D02*
X0297300Y0127563D01*
X0298835Y0127563D02*
X0300369Y0129865D01*
X0298835Y0127563D02*
X0297300Y0129865D01*
X0297300Y0136192D02*
X0301904Y0136192D01*
X0301904Y0138494D01*
X0301137Y0139261D01*
X0299602Y0139261D01*
X0298835Y0138494D01*
X0298835Y0136192D01*
X0298835Y0137727D02*
X0297300Y0139261D01*
X0297300Y0140796D02*
X0298067Y0140796D01*
X0301137Y0143865D01*
X0301904Y0143865D01*
X0301904Y0140796D01*
X0300369Y0146856D02*
X0301904Y0148390D01*
X0297300Y0148390D01*
X0297300Y0146856D02*
X0297300Y0149925D01*
X0298067Y0151459D02*
X0301137Y0154529D01*
X0298067Y0154529D01*
X0297300Y0153761D01*
X0297300Y0152227D01*
X0298067Y0151459D01*
X0301137Y0151459D01*
X0301904Y0152227D01*
X0301904Y0153761D01*
X0301137Y0154529D01*
X0301904Y0156063D02*
X0297300Y0156063D01*
X0298835Y0156063D02*
X0300369Y0158365D01*
X0298835Y0156063D02*
X0297300Y0158365D01*
X0323900Y0132865D02*
X0325435Y0130563D01*
X0326969Y0132865D01*
X0328504Y0130563D02*
X0323900Y0130563D01*
X0324667Y0129029D02*
X0323900Y0128261D01*
X0323900Y0126727D01*
X0324667Y0125959D01*
X0327737Y0129029D01*
X0324667Y0129029D01*
X0324667Y0125959D02*
X0327737Y0125959D01*
X0328504Y0126727D01*
X0328504Y0128261D01*
X0327737Y0129029D01*
X0323900Y0124425D02*
X0323900Y0121356D01*
X0323900Y0122890D02*
X0328504Y0122890D01*
X0326969Y0121356D01*
X0324100Y0117465D02*
X0324100Y0114396D01*
X0324100Y0112861D02*
X0324100Y0109792D01*
X0324100Y0108257D02*
X0325635Y0106723D01*
X0325635Y0107490D02*
X0325635Y0105188D01*
X0324100Y0105188D02*
X0328704Y0105188D01*
X0328704Y0107490D01*
X0327937Y0108257D01*
X0326402Y0108257D01*
X0325635Y0107490D01*
X0327169Y0109792D02*
X0328704Y0111327D01*
X0324100Y0111327D01*
X0327169Y0114396D02*
X0328704Y0115931D01*
X0324100Y0115931D01*
X0324300Y0101865D02*
X0325835Y0099563D01*
X0327369Y0101865D01*
X0328904Y0099563D02*
X0324300Y0099563D01*
X0325067Y0098029D02*
X0324300Y0097261D01*
X0324300Y0095727D01*
X0325067Y0094959D01*
X0328137Y0098029D01*
X0325067Y0098029D01*
X0325067Y0094959D02*
X0328137Y0094959D01*
X0328904Y0095727D01*
X0328904Y0097261D01*
X0328137Y0098029D01*
X0324300Y0093425D02*
X0324300Y0090356D01*
X0324300Y0091890D02*
X0328904Y0091890D01*
X0327369Y0090356D01*
X0326702Y0086465D02*
X0326702Y0084163D01*
X0327469Y0083396D01*
X0328237Y0083396D01*
X0329004Y0084163D01*
X0329004Y0085698D01*
X0328237Y0086465D01*
X0325167Y0086465D01*
X0324400Y0085698D01*
X0324400Y0084163D01*
X0325167Y0083396D01*
X0324400Y0081861D02*
X0325935Y0080327D01*
X0325935Y0081094D02*
X0325935Y0078792D01*
X0324400Y0078792D02*
X0329004Y0078792D01*
X0329004Y0081094D01*
X0328237Y0081861D01*
X0326702Y0081861D01*
X0325935Y0081094D01*
X0283600Y0234500D02*
X0283600Y0239104D01*
X0281298Y0239104D01*
X0280531Y0238337D01*
X0280531Y0236802D01*
X0281298Y0236035D01*
X0283600Y0236035D01*
X0282065Y0236035D02*
X0280531Y0234500D01*
X0278996Y0235267D02*
X0278229Y0234500D01*
X0276694Y0234500D01*
X0275927Y0235267D01*
X0275927Y0236035D01*
X0276694Y0236802D01*
X0278996Y0236802D01*
X0278996Y0235267D01*
X0278996Y0236802D02*
X0277461Y0238337D01*
X0275927Y0239104D01*
X0270800Y0238437D02*
X0270033Y0239204D01*
X0268498Y0239204D01*
X0267731Y0238437D01*
X0267731Y0237669D01*
X0270800Y0234600D01*
X0267731Y0234600D01*
X0266196Y0234600D02*
X0263127Y0237669D01*
X0263127Y0238437D01*
X0263894Y0239204D01*
X0265429Y0239204D01*
X0266196Y0238437D01*
X0266196Y0234600D02*
X0263127Y0234600D01*
X0261592Y0235367D02*
X0258523Y0238437D01*
X0258523Y0235367D01*
X0259290Y0234600D01*
X0260825Y0234600D01*
X0261592Y0235367D01*
X0261592Y0238437D01*
X0260825Y0239204D01*
X0259290Y0239204D01*
X0258523Y0238437D01*
X0262500Y0265200D02*
X0265569Y0268269D01*
X0266337Y0268269D01*
X0267104Y0267502D01*
X0267104Y0265967D01*
X0266337Y0265200D01*
X0262500Y0265200D02*
X0262500Y0268269D01*
X0262500Y0269804D02*
X0265569Y0272873D01*
X0266337Y0272873D01*
X0267104Y0272106D01*
X0267104Y0270571D01*
X0266337Y0269804D01*
X0262500Y0269804D02*
X0262500Y0272873D01*
X0263267Y0274408D02*
X0266337Y0277477D01*
X0263267Y0277477D01*
X0262500Y0276710D01*
X0262500Y0275175D01*
X0263267Y0274408D01*
X0266337Y0274408D01*
X0267104Y0275175D01*
X0267104Y0276710D01*
X0266337Y0277477D01*
X0271400Y0271906D02*
X0276004Y0271906D01*
X0273702Y0269604D01*
X0273702Y0272673D01*
X0273702Y0268069D02*
X0272935Y0267302D01*
X0272935Y0265000D01*
X0272935Y0266535D02*
X0271400Y0268069D01*
X0273702Y0268069D02*
X0275237Y0268069D01*
X0276004Y0267302D01*
X0276004Y0265000D01*
X0271400Y0265000D01*
X0299300Y0264992D02*
X0303904Y0264992D01*
X0303904Y0267294D01*
X0303137Y0268061D01*
X0301602Y0268061D01*
X0300835Y0267294D01*
X0300835Y0264992D01*
X0300835Y0266527D02*
X0299300Y0268061D01*
X0299300Y0269596D02*
X0302369Y0272665D01*
X0303137Y0272665D01*
X0303904Y0271898D01*
X0303904Y0270363D01*
X0303137Y0269596D01*
X0299300Y0269596D02*
X0299300Y0272665D01*
X0299400Y0276756D02*
X0299400Y0279825D01*
X0299400Y0278290D02*
X0304004Y0278290D01*
X0302469Y0276756D01*
X0303237Y0281359D02*
X0300167Y0281359D01*
X0303237Y0284429D01*
X0300167Y0284429D01*
X0299400Y0283661D01*
X0299400Y0282127D01*
X0300167Y0281359D01*
X0303237Y0281359D02*
X0304004Y0282127D01*
X0304004Y0283661D01*
X0303237Y0284429D01*
X0304004Y0285963D02*
X0299400Y0285963D01*
X0300935Y0285963D02*
X0299400Y0288265D01*
X0300935Y0285963D02*
X0302469Y0288265D01*
X0302204Y0293092D02*
X0297600Y0293092D01*
X0299135Y0293092D02*
X0299135Y0295394D01*
X0299902Y0296161D01*
X0301437Y0296161D01*
X0302204Y0295394D01*
X0302204Y0293092D01*
X0299135Y0294627D02*
X0297600Y0296161D01*
X0297600Y0297696D02*
X0297600Y0300765D01*
X0297600Y0299231D02*
X0302204Y0299231D01*
X0300669Y0297696D01*
X0300469Y0305756D02*
X0302004Y0307290D01*
X0297400Y0307290D01*
X0297400Y0305756D02*
X0297400Y0308825D01*
X0298167Y0310359D02*
X0301237Y0313429D01*
X0298167Y0313429D01*
X0297400Y0312661D01*
X0297400Y0311127D01*
X0298167Y0310359D01*
X0301237Y0310359D01*
X0302004Y0311127D01*
X0302004Y0312661D01*
X0301237Y0313429D01*
X0302004Y0314963D02*
X0297400Y0314963D01*
X0298935Y0314963D02*
X0300469Y0317265D01*
X0298935Y0314963D02*
X0297400Y0317265D01*
X0325100Y0288765D02*
X0326635Y0286463D01*
X0328169Y0288765D01*
X0329704Y0286463D02*
X0325100Y0286463D01*
X0325867Y0284929D02*
X0325100Y0284161D01*
X0325100Y0282627D01*
X0325867Y0281859D01*
X0328937Y0284929D01*
X0325867Y0284929D01*
X0325867Y0281859D02*
X0328937Y0281859D01*
X0329704Y0282627D01*
X0329704Y0284161D01*
X0328937Y0284929D01*
X0325100Y0280325D02*
X0325100Y0277256D01*
X0325100Y0278790D02*
X0329704Y0278790D01*
X0328169Y0277256D01*
X0327502Y0272265D02*
X0325967Y0272265D01*
X0325200Y0271498D01*
X0325200Y0269963D01*
X0325967Y0269196D01*
X0327502Y0269196D02*
X0328269Y0270731D01*
X0328269Y0271498D01*
X0327502Y0272265D01*
X0329804Y0272265D02*
X0329804Y0269196D01*
X0327502Y0269196D01*
X0327502Y0267661D02*
X0326735Y0266894D01*
X0326735Y0264592D01*
X0326735Y0266127D02*
X0325200Y0267661D01*
X0327502Y0267661D02*
X0329037Y0267661D01*
X0329804Y0266894D01*
X0329804Y0264592D01*
X0325200Y0264592D01*
X0325400Y0260465D02*
X0326935Y0258163D01*
X0328469Y0260465D01*
X0330004Y0258163D02*
X0325400Y0258163D01*
X0326167Y0256629D02*
X0325400Y0255861D01*
X0325400Y0254327D01*
X0326167Y0253559D01*
X0329237Y0256629D01*
X0326167Y0256629D01*
X0326167Y0253559D02*
X0329237Y0253559D01*
X0330004Y0254327D01*
X0330004Y0255861D01*
X0329237Y0256629D01*
X0325400Y0252025D02*
X0325400Y0248956D01*
X0325400Y0250490D02*
X0330004Y0250490D01*
X0328469Y0248956D01*
X0328569Y0245165D02*
X0327802Y0244398D01*
X0327035Y0245165D01*
X0326267Y0245165D01*
X0325500Y0244398D01*
X0325500Y0242863D01*
X0326267Y0242096D01*
X0325500Y0240561D02*
X0327035Y0239027D01*
X0327035Y0239794D02*
X0327035Y0237492D01*
X0325500Y0237492D02*
X0330104Y0237492D01*
X0330104Y0239794D01*
X0329337Y0240561D01*
X0327802Y0240561D01*
X0327035Y0239794D01*
X0329337Y0242096D02*
X0330104Y0242863D01*
X0330104Y0244398D01*
X0329337Y0245165D01*
X0328569Y0245165D01*
X0327802Y0244398D02*
X0327802Y0243631D01*
X0110604Y0320302D02*
X0108302Y0318000D01*
X0108302Y0321069D01*
X0106767Y0322604D02*
X0106767Y0323371D01*
X0106000Y0323371D01*
X0106000Y0322604D01*
X0106767Y0322604D01*
X0106767Y0324906D02*
X0106000Y0324906D01*
X0106767Y0324906D02*
X0109837Y0327975D01*
X0110604Y0327975D01*
X0110604Y0324906D01*
X0110604Y0329510D02*
X0106000Y0329510D01*
X0107535Y0329510D02*
X0109069Y0331812D01*
X0107535Y0329510D02*
X0106000Y0331812D01*
X0100204Y0330977D02*
X0099437Y0329442D01*
X0097902Y0327908D01*
X0097902Y0330210D01*
X0097135Y0330977D01*
X0096367Y0330977D01*
X0095600Y0330210D01*
X0095600Y0328675D01*
X0096367Y0327908D01*
X0097902Y0327908D01*
X0095600Y0326373D02*
X0095600Y0323304D01*
X0095600Y0324839D02*
X0100204Y0324839D01*
X0098669Y0323304D01*
X0097902Y0321769D02*
X0097135Y0321002D01*
X0097135Y0318700D01*
X0097135Y0320235D02*
X0095600Y0321769D01*
X0097902Y0321769D02*
X0099437Y0321769D01*
X0100204Y0321002D01*
X0100204Y0318700D01*
X0095600Y0318700D01*
X0106000Y0320302D02*
X0110604Y0320302D01*
X0083204Y0337556D02*
X0080902Y0335254D01*
X0080902Y0338323D01*
X0079367Y0339857D02*
X0079367Y0340625D01*
X0078600Y0340625D01*
X0078600Y0339857D01*
X0079367Y0339857D01*
X0079367Y0342159D02*
X0078600Y0342159D01*
X0079367Y0342159D02*
X0082437Y0345229D01*
X0083204Y0345229D01*
X0083204Y0342159D01*
X0083204Y0337556D02*
X0078600Y0337556D01*
X0067904Y0338690D02*
X0067137Y0339457D01*
X0065602Y0339457D01*
X0064835Y0338690D01*
X0064835Y0336388D01*
X0064835Y0337923D02*
X0063300Y0339457D01*
X0063300Y0340992D02*
X0063300Y0344061D01*
X0063300Y0342527D02*
X0067904Y0342527D01*
X0066369Y0340992D01*
X0067904Y0338690D02*
X0067904Y0336388D01*
X0063300Y0336388D01*
X0065602Y0345596D02*
X0065602Y0348665D01*
X0063300Y0347898D02*
X0067904Y0347898D01*
X0065602Y0345596D01*
X0078600Y0346763D02*
X0083204Y0346763D01*
X0081669Y0349065D02*
X0080135Y0346763D01*
X0078600Y0349065D01*
X0078937Y0308965D02*
X0075867Y0308965D01*
X0075100Y0308198D01*
X0075100Y0306663D01*
X0075867Y0305896D01*
X0078937Y0308965D01*
X0079704Y0308198D01*
X0079704Y0306663D01*
X0078937Y0305896D01*
X0075867Y0305896D01*
X0075100Y0304361D02*
X0075100Y0301292D01*
X0078169Y0304361D01*
X0078937Y0304361D01*
X0079704Y0303594D01*
X0079704Y0302059D01*
X0078937Y0301292D01*
X0078937Y0299757D02*
X0079704Y0298990D01*
X0079704Y0297456D01*
X0078937Y0296688D01*
X0078937Y0299757D02*
X0078169Y0299757D01*
X0075100Y0296688D01*
X0075100Y0299757D01*
X0070704Y0298790D02*
X0070704Y0296488D01*
X0066100Y0296488D01*
X0067635Y0296488D02*
X0067635Y0298790D01*
X0068402Y0299557D01*
X0069937Y0299557D01*
X0070704Y0298790D01*
X0069169Y0301092D02*
X0070704Y0302627D01*
X0066100Y0302627D01*
X0066100Y0304161D02*
X0066100Y0301092D01*
X0066100Y0299557D02*
X0067635Y0298023D01*
X0066867Y0305696D02*
X0066100Y0305696D01*
X0066867Y0305696D02*
X0069937Y0308765D01*
X0070704Y0308765D01*
X0070704Y0305696D01*
X0070200Y0266612D02*
X0071735Y0264310D01*
X0073269Y0266612D01*
X0074804Y0264310D02*
X0070200Y0264310D01*
X0066804Y0264610D02*
X0066037Y0265377D01*
X0062967Y0262308D01*
X0062200Y0263075D01*
X0062200Y0264610D01*
X0062967Y0265377D01*
X0066037Y0265377D01*
X0066804Y0264610D02*
X0066804Y0263075D01*
X0066037Y0262308D01*
X0062967Y0262308D01*
X0062200Y0260773D02*
X0062200Y0257704D01*
X0062200Y0259239D02*
X0066804Y0259239D01*
X0065269Y0257704D01*
X0064502Y0256169D02*
X0063735Y0255402D01*
X0063735Y0253100D01*
X0063735Y0254635D02*
X0062200Y0256169D01*
X0064502Y0256169D02*
X0066037Y0256169D01*
X0066804Y0255402D01*
X0066804Y0253100D01*
X0062200Y0253100D01*
X0070200Y0255102D02*
X0074804Y0255102D01*
X0072502Y0252800D01*
X0072502Y0255869D01*
X0070967Y0257404D02*
X0070967Y0258171D01*
X0070200Y0258171D01*
X0070200Y0257404D01*
X0070967Y0257404D01*
X0070967Y0259706D02*
X0070200Y0259706D01*
X0070967Y0259706D02*
X0074037Y0262775D01*
X0074804Y0262775D01*
X0074804Y0259706D01*
X0081200Y0259039D02*
X0085804Y0259039D01*
X0084269Y0257504D01*
X0083502Y0255969D02*
X0082735Y0255202D01*
X0082735Y0252900D01*
X0082735Y0254435D02*
X0081200Y0255969D01*
X0081200Y0257504D02*
X0081200Y0260573D01*
X0081967Y0262108D02*
X0082735Y0262108D01*
X0083502Y0262875D01*
X0083502Y0264410D01*
X0082735Y0265177D01*
X0081967Y0265177D01*
X0081200Y0264410D01*
X0081200Y0262875D01*
X0081967Y0262108D01*
X0083502Y0262875D02*
X0084269Y0262108D01*
X0085037Y0262108D01*
X0085804Y0262875D01*
X0085804Y0264410D01*
X0085037Y0265177D01*
X0084269Y0265177D01*
X0083502Y0264410D01*
X0089100Y0264510D02*
X0089100Y0262975D01*
X0089867Y0262208D01*
X0092937Y0265277D01*
X0089867Y0265277D01*
X0089100Y0264510D01*
X0089867Y0262208D02*
X0092937Y0262208D01*
X0093704Y0262975D01*
X0093704Y0264510D01*
X0092937Y0265277D01*
X0092937Y0260673D02*
X0093704Y0259906D01*
X0093704Y0258371D01*
X0092937Y0257604D01*
X0092937Y0256069D02*
X0093704Y0255302D01*
X0093704Y0253767D01*
X0092937Y0253000D01*
X0092937Y0256069D02*
X0092169Y0256069D01*
X0089100Y0253000D01*
X0089100Y0256069D01*
X0089100Y0257604D02*
X0092169Y0260673D01*
X0092937Y0260673D01*
X0089100Y0260673D02*
X0089100Y0257604D01*
X0085804Y0255202D02*
X0085037Y0255969D01*
X0083502Y0255969D01*
X0085804Y0255202D02*
X0085804Y0252900D01*
X0081200Y0252900D01*
M02*
